<?xml version="1.0" encoding="iso-8859-1"?>
<!-- Generator: Adobe Illustrator 16.0.0, SVG Export Plug-In . SVG Version: 6.00 Build 0)  -->
<!DOCTYPE svg PUBLIC "-//W3C//DTD SVG 1.1//EN" "http://www.w3.org/Graphics/SVG/1.1/DTD/svg11.dtd">
<svg version="1.1" id="Capa_1" xmlns="http://www.w3.org/2000/svg" xmlns:xlink="http://www.w3.org/1999/xlink" x="0px" y="0px"
	 width="982.145px" height="982.145px" viewBox="0 0 982.145 982.145" style="enable-background:new 0 0 982.145 982.145;"
	 xml:space="preserve">
<g>
	<g>
		<path d="M105.521,404.352l7.82,30.62l86.001,336.739H711.91l12.748-68.014c10.75-3.395,21.369-7.287,31.832-11.711
			c42.891-18.141,81.402-44.105,114.469-77.17c33.064-33.064,59.029-71.578,77.17-114.469
			c18.789-44.422,28.316-91.591,28.316-140.198c0-48.606-9.527-95.775-28.316-140.197c-18.141-42.891-44.105-81.403-77.17-114.468
			c-33.064-33.065-71.578-59.029-114.469-77.17C712.949,9.898,666.764,0.404,619.176,0.035C618.215,0.028,617.256,0,616.293,0
			s-1.922,0.028-2.883,0.035c-47.588,0.37-93.771,9.864-137.315,28.28c-42.892,18.141-81.403,44.105-114.469,77.17
			c-33.064,33.065-59.028,71.578-77.169,114.468c-18.789,44.422-28.316,91.591-28.316,140.197c0,22.272,2.025,44.237,6,65.78
			l-84.017,0.029l-22.119-86.607H5.699v32.5l0,0v32.5h55.424H105.521L105.521,404.352z M322.922,392.65h91.796
			c0.542,11.191,1.365,22.275,2.46,33.229l-88.719,0.029C325.988,414.99,324.146,403.889,322.922,392.65z M377.473,186.64
			c16.922,8.255,35.214,15.574,54.589,21.883c-9.43,37.238-15.324,77.455-17.343,119.127h-91.796
			C328.5,276.409,347.23,228.082,377.473,186.64z M473.848,101.517c-2.221,3.896-4.397,7.889-6.522,11.989
			c-5.483,10.577-10.57,21.695-15.256,33.281c-9.772-3.193-19.189-6.683-28.215-10.45
			C439.416,122.917,456.168,111.288,473.848,101.517z M808.869,136.453c-9.053,3.769-18.5,7.26-28.303,10.453
			c-4.699-11.628-9.801-22.787-15.303-33.4c-2.127-4.1-4.303-8.093-6.523-11.989C776.473,111.316,793.271,122.983,808.869,136.453z
			 M909.668,327.65h-91.797c-2.018-41.626-7.9-81.801-17.312-119.005c19.4-6.299,37.719-13.608,54.666-21.856
			C885.402,228.198,904.096,276.47,909.668,327.65z M854.51,534.496c-16.805-8.166-34.926-15.4-54.25-21.666
			c9.586-37.532,15.572-78.115,17.611-120.18h91.797C904.053,444.235,885.111,492.869,854.51,534.496z M479.792,392.65h104.002
			v33.171l-101.292,0.034C481.297,414.953,480.39,403.874,479.792,392.65z M494.951,224.706
			c28.475,5.564,58.322,9.187,88.844,10.705v92.239H479.792C481.72,291.432,486.865,256.694,494.951,224.706z M752.797,327.65
			H648.795v-92.219c30.52-1.499,60.377-5.103,88.861-10.65C745.732,256.748,750.871,291.46,752.797,327.65z M750.096,425.764
			l-101.301,0.034v-33.149h104.002C752.201,403.842,751.297,414.891,750.096,425.764z M716.697,162.659
			c-21.818,3.852-44.584,6.459-67.902,7.711V74.435c21.193,12.211,41.613,35.912,58.762,68.989
			C710.764,149.609,713.807,156.036,716.697,162.659z M583.795,74.435v95.916c-23.314-1.268-46.068-3.891-67.875-7.757
			c2.883-6.6,5.914-13.005,9.109-19.169C542.18,110.347,562.6,86.646,583.795,74.435z M758.74,618.781
			c2.221-3.895,4.398-7.889,6.523-11.988c5.309-10.242,10.248-20.99,14.811-32.182c9.584,3.109,18.83,6.5,27.701,10.156
			C792.484,597.846,776.061,609.211,758.74,618.781z M315.802,490.912l35.731-0.012l75.67-0.025l33.29-0.012l33.278-0.011
			l38.172-0.013l51.852-0.019l65-0.021l49.641-0.018l-11.953,63.777l-13.5,72.023l-4.525,24.141l-4.494,23.982l-1.855,9.895
			l-4.145,22.113h-98.215h-41.809h-268.11l-55.104-215.759l85.916-0.028L315.802,490.912z"/>
		<path d="M629.111,982.145c52.918,0,95.971-43.051,95.971-95.969s-43.053-95.971-95.971-95.971H281.206
			c-52.918,0-95.97,43.053-95.97,95.971s43.052,95.969,95.97,95.969c52.918,0,95.97-43.051,95.97-95.969
			c0-10.832-1.807-21.25-5.129-30.971h166.224c-3.322,9.721-5.129,20.139-5.129,30.971
			C533.143,939.094,576.193,982.145,629.111,982.145z M312.175,886.176c0,17.076-13.894,30.969-30.97,30.969
			c-17.077,0-30.97-13.893-30.97-30.969c0-17.078,13.893-30.971,30.97-30.971C298.282,855.205,312.175,869.1,312.175,886.176z
			 M660.082,886.176c0,17.076-13.895,30.969-30.971,30.969c-17.078,0-30.971-13.893-30.971-30.969
			c0-17.078,13.893-30.971,30.971-30.971C646.188,855.205,660.082,869.1,660.082,886.176z"/>
	</g>
</g>
<g>
</g>
<g>
</g>
<g>
</g>
<g>
</g>
<g>
</g>
<g>
</g>
<g>
</g>
<g>
</g>
<g>
</g>
<g>
</g>
<g>
</g>
<g>
</g>
<g>
</g>
<g>
</g>
<g>
</g>
</svg>
